<mxfile>
    <diagram id="6T3z1zUJY0ZvKYCMlxWh" name="User-check-attache-file">
        <mxGraphModel dx="1423" dy="927" grid="1" gridSize="10" guides="1" tooltips="1" connect="1" arrows="1" fold="1" page="0" pageScale="1" pageWidth="827" pageHeight="1169" background="none" math="0" shadow="0">
            <root>
                <mxCell id="0"/>
                <mxCell id="1" parent="0"/>
                <mxCell id="2" value="LOW LEVEL : USER CHECK ATTACHED FILE" style="shape=umlFrame;whiteSpace=wrap;html=1;fillColor=none;fontSize=24;width=600;height=50;connectable=0;allowArrows=0;" parent="1" vertex="1">
                    <mxGeometry x="-110" y="-60" width="1000" height="1140" as="geometry"/>
                </mxCell>
                <mxCell id="4" value="Document" style="rounded=0;whiteSpace=wrap;html=1;fontSize=16;" parent="1" vertex="1">
                    <mxGeometry x="330" y="40" width="100" height="40" as="geometry"/>
                </mxCell>
                <mxCell id="5" value="Bills" style="rounded=0;whiteSpace=wrap;html=1;fontSize=16;" parent="1" vertex="1">
                    <mxGeometry x="-10" y="40" width="100" height="40" as="geometry"/>
                </mxCell>
                <mxCell id="6" value="" style="endArrow=none;dashed=1;html=1;dashPattern=1 3;strokeWidth=2;fontSize=16;" parent="1" edge="1">
                    <mxGeometry width="50" height="50" relative="1" as="geometry">
                        <mxPoint x="710" y="860" as="sourcePoint"/>
                        <mxPoint x="710" y="100" as="targetPoint"/>
                    </mxGeometry>
                </mxCell>
                <mxCell id="8" value="" style="endArrow=none;dashed=1;html=1;dashPattern=1 3;strokeWidth=2;fontSize=16;" parent="1" source="12" edge="1">
                    <mxGeometry width="50" height="50" relative="1" as="geometry">
                        <mxPoint x="40" y="860" as="sourcePoint"/>
                        <mxPoint x="40" y="80" as="targetPoint"/>
                    </mxGeometry>
                </mxCell>
                <mxCell id="9" value="User" style="shape=umlActor;verticalLabelPosition=bottom;verticalAlign=top;html=1;outlineConnect=0;fontSize=16;" parent="1" vertex="1">
                    <mxGeometry x="695" y="17" width="30" height="60" as="geometry"/>
                </mxCell>
                <mxCell id="10" value="" style="endArrow=none;dashed=1;html=1;dashPattern=1 3;strokeWidth=2;fontSize=16;entryX=0.5;entryY=1;entryDx=0;entryDy=0;" parent="1" edge="1">
                    <mxGeometry width="50" height="50" relative="1" as="geometry">
                        <mxPoint x="379.58" y="859" as="sourcePoint"/>
                        <mxPoint x="379.58" y="80" as="targetPoint"/>
                    </mxGeometry>
                </mxCell>
                <mxCell id="12" value="" style="rounded=0;whiteSpace=wrap;html=1;" parent="1" vertex="1">
                    <mxGeometry x="30" y="110" width="20" height="80" as="geometry"/>
                </mxCell>
                <mxCell id="13" value="" style="endArrow=none;dashed=1;html=1;dashPattern=1 3;strokeWidth=2;fontSize=16;" parent="1" target="12" edge="1">
                    <mxGeometry width="50" height="50" relative="1" as="geometry">
                        <mxPoint x="39.99999999999977" y="860" as="sourcePoint"/>
                        <mxPoint x="39.99999999999977" y="80" as="targetPoint"/>
                    </mxGeometry>
                </mxCell>
                <mxCell id="14" value="1: affect function onclick to iconEye buttons" style="endArrow=block;html=1;fontSize=16;labelBackgroundColor=none;entryX=0;entryY=0.143;entryDx=0;entryDy=0;entryPerimeter=0;endFill=1;exitX=1.058;exitY=0.421;exitDx=0;exitDy=0;exitPerimeter=0;" parent="1" source="12" edge="1">
                    <mxGeometry x="-0.0061" y="10" width="50" height="50" relative="1" as="geometry">
                        <mxPoint x="82" y="146" as="sourcePoint"/>
                        <mxPoint x="370" y="146.29999999999995" as="targetPoint"/>
                        <mxPoint as="offset"/>
                    </mxGeometry>
                </mxCell>
                <mxCell id="15" value="3: display the modal" style="endArrow=none;html=1;fontSize=16;exitX=1;exitY=0.25;exitDx=0;exitDy=0;labelBackgroundColor=none;endFill=0;startArrow=open;startFill=0;dashed=1;" parent="1" edge="1">
                    <mxGeometry x="-0.0061" y="10" width="50" height="50" relative="1" as="geometry">
                        <mxPoint x="80" y="230" as="sourcePoint"/>
                        <mxPoint x="370" y="230" as="targetPoint"/>
                        <mxPoint as="offset"/>
                    </mxGeometry>
                </mxCell>
                <mxCell id="16" value="XXXX" style="endArrow=block;html=1;fontSize=16;exitX=1;exitY=0.25;exitDx=0;exitDy=0;labelBackgroundColor=none;entryX=1.008;entryY=0.399;entryDx=0;entryDy=0;endFill=1;entryPerimeter=0;" parent="1" edge="1">
                    <mxGeometry x="-0.4855" y="10" width="50" height="50" relative="1" as="geometry">
                        <mxPoint x="430" y="430" as="sourcePoint"/>
                        <mxPoint x="430.1600000000001" y="439.9000000000001" as="targetPoint"/>
                        <mxPoint x="1" as="offset"/>
                        <Array as="points">
                            <mxPoint x="600" y="430"/>
                            <mxPoint x="600" y="440"/>
                        </Array>
                    </mxGeometry>
                </mxCell>
                <mxCell id="17" value="" style="rounded=0;whiteSpace=wrap;html=1;" parent="1" vertex="1">
                    <mxGeometry x="370" y="130" width="20" height="90" as="geometry"/>
                </mxCell>
                <mxCell id="18" value="2: click on one of the iconEye buttons" style="endArrow=none;html=1;fontSize=16;labelBackgroundColor=none;entryX=0;entryY=0.143;entryDx=0;entryDy=0;entryPerimeter=0;endFill=0;exitX=0.975;exitY=0.062;exitDx=0;exitDy=0;exitPerimeter=0;startArrow=block;startFill=1;" parent="1" edge="1">
                    <mxGeometry x="-0.0061" y="10" width="50" height="50" relative="1" as="geometry">
                        <mxPoint x="390" y="190.00000000000003" as="sourcePoint"/>
                        <mxPoint x="710.5" y="190.33999999999995" as="targetPoint"/>
                        <mxPoint as="offset"/>
                    </mxGeometry>
                </mxCell>
            </root>
        </mxGraphModel>
    </diagram>
    <diagram id="ZmOiIIuocN6up_GHvPY0" name="User-login">
        <mxGraphModel dx="2446" dy="1454" grid="1" gridSize="10" guides="1" tooltips="1" connect="1" arrows="1" fold="1" page="0" pageScale="1" pageWidth="827" pageHeight="1169" math="0" shadow="0">
            <root>
                <mxCell id="PdPnl8OcY0AH9zLTeRle-0"/>
                <mxCell id="PdPnl8OcY0AH9zLTeRle-1" parent="PdPnl8OcY0AH9zLTeRle-0"/>
                <mxCell id="PdPnl8OcY0AH9zLTeRle-5" value="HIGH LEVEL : USER LOGIN" style="shape=umlFrame;whiteSpace=wrap;html=1;fillColor=none;fontSize=24;width=510;height=50;connectable=0;allowArrows=0;labelBackgroundColor=none;" parent="PdPnl8OcY0AH9zLTeRle-1" vertex="1">
                    <mxGeometry x="-110" y="-100" width="1880" height="1290" as="geometry"/>
                </mxCell>
                <mxCell id="PdPnl8OcY0AH9zLTeRle-35" value="" style="endArrow=none;dashed=1;html=1;dashPattern=1 3;strokeWidth=2;fontSize=16;entryX=0.5;entryY=1;entryDx=0;entryDy=0;exitX=0.5;exitY=1;exitDx=0;exitDy=0;" parent="PdPnl8OcY0AH9zLTeRle-1" source="hBavTMVIUUTpDoz1ay88-35" edge="1">
                    <mxGeometry width="50" height="50" relative="1" as="geometry">
                        <mxPoint x="1330" y="1010" as="sourcePoint"/>
                        <mxPoint x="1330" y="80.99999999999977" as="targetPoint"/>
                    </mxGeometry>
                </mxCell>
                <mxCell id="hBavTMVIUUTpDoz1ay88-31" value="" style="rounded=0;whiteSpace=wrap;html=1;" vertex="1" parent="PdPnl8OcY0AH9zLTeRle-1">
                    <mxGeometry x="1320" y="730" width="20" height="240" as="geometry"/>
                </mxCell>
                <mxCell id="hBavTMVIUUTpDoz1ay88-24" value="" style="endArrow=none;dashed=1;html=1;dashPattern=1 3;strokeWidth=2;fontSize=16;entryX=0.5;entryY=1;entryDx=0;entryDy=0;" edge="1" parent="PdPnl8OcY0AH9zLTeRle-1">
                    <mxGeometry width="50" height="50" relative="1" as="geometry">
                        <mxPoint x="1680" y="1090" as="sourcePoint"/>
                        <mxPoint x="1680" y="80.99999999999977" as="targetPoint"/>
                    </mxGeometry>
                </mxCell>
                <mxCell id="PdPnl8OcY0AH9zLTeRle-2" value="" style="endArrow=none;dashed=1;html=1;dashPattern=1 3;strokeWidth=2;fontSize=16;entryX=0.5;entryY=1;entryDx=0;entryDy=0;" parent="PdPnl8OcY0AH9zLTeRle-1" target="PdPnl8OcY0AH9zLTeRle-8" edge="1">
                    <mxGeometry width="50" height="50" relative="1" as="geometry">
                        <mxPoint x="380" y="1090" as="sourcePoint"/>
                        <mxPoint x="470" y="230" as="targetPoint"/>
                    </mxGeometry>
                </mxCell>
                <mxCell id="PdPnl8OcY0AH9zLTeRle-3" value="" style="rounded=0;whiteSpace=wrap;html=1;" parent="PdPnl8OcY0AH9zLTeRle-1" vertex="1">
                    <mxGeometry x="60" y="120" width="20" height="970" as="geometry"/>
                </mxCell>
                <mxCell id="PdPnl8OcY0AH9zLTeRle-7" value="User" style="shape=umlActor;verticalLabelPosition=bottom;verticalAlign=top;html=1;outlineConnect=0;fontSize=16;" parent="PdPnl8OcY0AH9zLTeRle-1" vertex="1">
                    <mxGeometry x="55" y="20" width="30" height="60" as="geometry"/>
                </mxCell>
                <mxCell id="PdPnl8OcY0AH9zLTeRle-8" value="Router" style="rounded=0;whiteSpace=wrap;html=1;fontSize=16;" parent="PdPnl8OcY0AH9zLTeRle-1" vertex="1">
                    <mxGeometry x="330" y="40" width="100" height="40" as="geometry"/>
                </mxCell>
                <mxCell id="PdPnl8OcY0AH9zLTeRle-9" value="Login" style="rounded=0;whiteSpace=wrap;html=1;fontSize=16;" parent="PdPnl8OcY0AH9zLTeRle-1" vertex="1">
                    <mxGeometry x="660" y="40" width="100" height="40" as="geometry"/>
                </mxCell>
                <mxCell id="PdPnl8OcY0AH9zLTeRle-10" value="" style="endArrow=none;dashed=1;html=1;dashPattern=1 3;strokeWidth=2;fontSize=16;entryX=0.5;entryY=1;entryDx=0;entryDy=0;" parent="PdPnl8OcY0AH9zLTeRle-1" edge="1">
                    <mxGeometry width="50" height="50" relative="1" as="geometry">
                        <mxPoint x="710" y="1000" as="sourcePoint"/>
                        <mxPoint x="710" y="81" as="targetPoint"/>
                    </mxGeometry>
                </mxCell>
                <mxCell id="PdPnl8OcY0AH9zLTeRle-11" value="1: navigate to the homepage" style="endArrow=block;html=1;fontSize=16;labelBackgroundColor=none;entryX=0;entryY=0.143;entryDx=0;entryDy=0;entryPerimeter=0;endFill=1;" parent="PdPnl8OcY0AH9zLTeRle-1" edge="1">
                    <mxGeometry x="-0.0061" y="10" width="50" height="50" relative="1" as="geometry">
                        <mxPoint x="82" y="140" as="sourcePoint"/>
                        <mxPoint x="370" y="140.30000000000018" as="targetPoint"/>
                        <mxPoint as="offset"/>
                    </mxGeometry>
                </mxCell>
                <mxCell id="PdPnl8OcY0AH9zLTeRle-12" value="" style="rounded=0;whiteSpace=wrap;html=1;" parent="PdPnl8OcY0AH9zLTeRle-1" vertex="1">
                    <mxGeometry x="370" y="140" width="20" height="60" as="geometry"/>
                </mxCell>
                <mxCell id="PdPnl8OcY0AH9zLTeRle-13" value="" style="rounded=0;whiteSpace=wrap;html=1;" parent="PdPnl8OcY0AH9zLTeRle-1" vertex="1">
                    <mxGeometry x="700" y="190" width="20" height="490" as="geometry"/>
                </mxCell>
                <mxCell id="PdPnl8OcY0AH9zLTeRle-14" value="2: display login page" style="endArrow=none;html=1;fontSize=16;exitX=1;exitY=0.25;exitDx=0;exitDy=0;labelBackgroundColor=none;endFill=0;startArrow=open;startFill=0;dashed=1;" parent="PdPnl8OcY0AH9zLTeRle-1" edge="1">
                    <mxGeometry x="-0.0061" y="10" width="50" height="50" relative="1" as="geometry">
                        <mxPoint x="80" y="169.58" as="sourcePoint"/>
                        <mxPoint x="370" y="169.58" as="targetPoint"/>
                        <mxPoint as="offset"/>
                    </mxGeometry>
                </mxCell>
                <mxCell id="PdPnl8OcY0AH9zLTeRle-16" value="4: fill email adress" style="endArrow=block;html=1;fontSize=16;exitX=1;exitY=0.25;exitDx=0;exitDy=0;labelBackgroundColor=none;entryX=1.008;entryY=0.399;entryDx=0;entryDy=0;endFill=1;entryPerimeter=0;" parent="PdPnl8OcY0AH9zLTeRle-1" edge="1">
                    <mxGeometry x="-0.4855" y="10" width="50" height="50" relative="1" as="geometry">
                        <mxPoint x="80" y="210" as="sourcePoint"/>
                        <mxPoint x="80.1599999999994" y="219.9000000000001" as="targetPoint"/>
                        <mxPoint as="offset"/>
                        <Array as="points">
                            <mxPoint x="250" y="210"/>
                            <mxPoint x="250" y="220"/>
                        </Array>
                    </mxGeometry>
                </mxCell>
                <mxCell id="PdPnl8OcY0AH9zLTeRle-17" value="5: fill password" style="endArrow=block;html=1;fontSize=16;exitX=1;exitY=0.25;exitDx=0;exitDy=0;labelBackgroundColor=none;entryX=1.008;entryY=0.399;entryDx=0;entryDy=0;endFill=1;entryPerimeter=0;" parent="PdPnl8OcY0AH9zLTeRle-1" edge="1">
                    <mxGeometry x="-0.4855" y="10" width="50" height="50" relative="1" as="geometry">
                        <mxPoint x="80" y="250" as="sourcePoint"/>
                        <mxPoint x="80.1599999999994" y="259.9000000000001" as="targetPoint"/>
                        <mxPoint as="offset"/>
                        <Array as="points">
                            <mxPoint x="250" y="250"/>
                            <mxPoint x="250" y="260"/>
                        </Array>
                    </mxGeometry>
                </mxCell>
                <mxCell id="PdPnl8OcY0AH9zLTeRle-18" value="6: click on submit button" style="endArrow=block;html=1;fontSize=16;labelBackgroundColor=none;endFill=1;labelBorderColor=none;" parent="PdPnl8OcY0AH9zLTeRle-1" edge="1">
                    <mxGeometry x="-0.0061" y="10" width="50" height="50" relative="1" as="geometry">
                        <mxPoint x="80" y="290" as="sourcePoint"/>
                        <mxPoint x="700" y="290" as="targetPoint"/>
                        <mxPoint as="offset"/>
                    </mxGeometry>
                </mxCell>
                <mxCell id="PdPnl8OcY0AH9zLTeRle-32" value="Bills" style="rounded=0;whiteSpace=wrap;html=1;fontSize=16;" parent="PdPnl8OcY0AH9zLTeRle-1" vertex="1">
                    <mxGeometry x="970" y="40" width="100" height="40" as="geometry"/>
                </mxCell>
                <mxCell id="PdPnl8OcY0AH9zLTeRle-33" value="" style="endArrow=none;dashed=1;html=1;dashPattern=1 3;strokeWidth=2;fontSize=16;entryX=0.5;entryY=1;entryDx=0;entryDy=0;" parent="PdPnl8OcY0AH9zLTeRle-1" edge="1" source="hBavTMVIUUTpDoz1ay88-22">
                    <mxGeometry width="50" height="50" relative="1" as="geometry">
                        <mxPoint x="1020" y="1090" as="sourcePoint"/>
                        <mxPoint x="1020" y="80.99999999999977" as="targetPoint"/>
                    </mxGeometry>
                </mxCell>
                <mxCell id="PdPnl8OcY0AH9zLTeRle-34" value="Logout" style="rounded=0;whiteSpace=wrap;html=1;fontSize=16;" parent="PdPnl8OcY0AH9zLTeRle-1" vertex="1">
                    <mxGeometry x="1280" y="40" width="100" height="40" as="geometry"/>
                </mxCell>
                <mxCell id="PdPnl8OcY0AH9zLTeRle-37" value="3: initialize Login" style="endArrow=block;html=1;fontSize=16;labelBackgroundColor=none;endFill=1;" parent="PdPnl8OcY0AH9zLTeRle-1" edge="1">
                    <mxGeometry x="-0.0061" y="10" width="50" height="50" relative="1" as="geometry">
                        <mxPoint x="390" y="190" as="sourcePoint"/>
                        <mxPoint x="700" y="190" as="targetPoint"/>
                        <mxPoint as="offset"/>
                    </mxGeometry>
                </mxCell>
                <mxCell id="gsyzY0mnWbeFBrlZnJQb-2" value="9: get user information" style="endArrow=open;html=1;fontSize=16;labelBackgroundColor=none;endFill=0;labelBorderColor=none;" parent="PdPnl8OcY0AH9zLTeRle-1" edge="1">
                    <mxGeometry x="-0.0061" y="10" width="50" height="50" relative="1" as="geometry">
                        <mxPoint x="719.9999999999998" y="390" as="sourcePoint"/>
                        <mxPoint x="1670" y="390" as="targetPoint"/>
                        <mxPoint as="offset"/>
                    </mxGeometry>
                </mxCell>
                <mxCell id="gsyzY0mnWbeFBrlZnJQb-4" value="&lt;p style=&quot;margin: 0px ; margin-top: 4px ; margin-left: 5px ; text-align: left&quot;&gt;&lt;b&gt;alt:&amp;nbsp;&lt;/b&gt;&lt;/p&gt;" style="html=1;shape=mxgraph.sysml.package;overflow=fill;labelX=41;align=left;spacingLeft=5;verticalAlign=top;spacingTop=-3;fontSize=16;fillColor=none;connectable=0;allowArrows=0;" parent="PdPnl8OcY0AH9zLTeRle-1" vertex="1">
                    <mxGeometry x="-70" y="490" width="1790" height="100" as="geometry"/>
                </mxCell>
                <mxCell id="gsyzY0mnWbeFBrlZnJQb-5" value="11: check if User exists" style="endArrow=block;html=1;fontSize=16;exitX=1;exitY=0.25;exitDx=0;exitDy=0;labelBackgroundColor=none;entryX=1.008;entryY=0.399;entryDx=0;entryDy=0;endFill=1;entryPerimeter=0;" parent="PdPnl8OcY0AH9zLTeRle-1" edge="1">
                    <mxGeometry x="-0.4855" y="13" width="50" height="50" relative="1" as="geometry">
                        <mxPoint x="720" y="460.0000000000002" as="sourcePoint"/>
                        <mxPoint x="720.1599999999999" y="469.9000000000003" as="targetPoint"/>
                        <mxPoint as="offset"/>
                        <Array as="points">
                            <mxPoint x="890" y="460"/>
                            <mxPoint x="890" y="470"/>
                        </Array>
                    </mxGeometry>
                </mxCell>
                <mxCell id="gsyzY0mnWbeFBrlZnJQb-7" value="13: confirm User's creation" style="endArrow=none;html=1;fontSize=16;labelBackgroundColor=none;endFill=0;startArrow=open;startFill=0;dashed=1;exitX=1;exitY=0.5;exitDx=0;exitDy=0;entryX=0;entryY=0.75;entryDx=0;entryDy=0;" parent="PdPnl8OcY0AH9zLTeRle-1" edge="1" target="hBavTMVIUUTpDoz1ay88-0">
                    <mxGeometry x="-0.0061" y="10" width="50" height="50" relative="1" as="geometry">
                        <mxPoint x="720" y="550.5" as="sourcePoint"/>
                        <mxPoint x="1320" y="550" as="targetPoint"/>
                        <mxPoint as="offset"/>
                    </mxGeometry>
                </mxCell>
                <mxCell id="gsyzY0mnWbeFBrlZnJQb-8" value="10: send user's information" style="endArrow=none;html=1;fontSize=16;labelBackgroundColor=none;endFill=0;startArrow=open;startFill=0;dashed=1;" parent="PdPnl8OcY0AH9zLTeRle-1" edge="1">
                    <mxGeometry x="-0.0061" y="10" width="50" height="50" relative="1" as="geometry">
                        <mxPoint x="721" y="420" as="sourcePoint"/>
                        <mxPoint x="1670" y="420" as="targetPoint"/>
                        <mxPoint as="offset"/>
                    </mxGeometry>
                </mxCell>
                <mxCell id="gsyzY0mnWbeFBrlZnJQb-9" value="12: set User's creation" style="endArrow=open;html=1;fontSize=16;labelBackgroundColor=none;endFill=0;" parent="PdPnl8OcY0AH9zLTeRle-1" edge="1">
                    <mxGeometry x="-0.0061" y="10" width="50" height="50" relative="1" as="geometry">
                        <mxPoint x="720" y="519.9999999999999" as="sourcePoint"/>
                        <mxPoint x="1670" y="520" as="targetPoint"/>
                        <mxPoint as="offset"/>
                    </mxGeometry>
                </mxCell>
                <mxCell id="gsyzY0mnWbeFBrlZnJQb-10" value="7: build User object" style="endArrow=block;html=1;fontSize=16;exitX=1;exitY=0.25;exitDx=0;exitDy=0;labelBackgroundColor=none;entryX=1.008;entryY=0.399;entryDx=0;entryDy=0;endFill=1;entryPerimeter=0;" parent="PdPnl8OcY0AH9zLTeRle-1" edge="1">
                    <mxGeometry x="-0.5426" y="10" width="50" height="50" relative="1" as="geometry">
                        <mxPoint x="720" y="300.0000000000002" as="sourcePoint"/>
                        <mxPoint x="720.1599999999999" y="309.9000000000003" as="targetPoint"/>
                        <mxPoint as="offset"/>
                        <Array as="points">
                            <mxPoint x="890" y="300"/>
                            <mxPoint x="890" y="310"/>
                        </Array>
                    </mxGeometry>
                </mxCell>
                <mxCell id="gsyzY0mnWbeFBrlZnJQb-11" value="8: affect User&lt;br&gt;to localStorage" style="endArrow=block;html=1;fontSize=16;exitX=1;exitY=0.25;exitDx=0;exitDy=0;labelBackgroundColor=none;entryX=1.008;entryY=0.399;entryDx=0;entryDy=0;endFill=1;entryPerimeter=0;" parent="PdPnl8OcY0AH9zLTeRle-1" edge="1">
                    <mxGeometry x="-0.5426" y="20" width="50" height="50" relative="1" as="geometry">
                        <mxPoint x="720" y="360.0000000000002" as="sourcePoint"/>
                        <mxPoint x="720.1599999999999" y="369.9000000000003" as="targetPoint"/>
                        <mxPoint as="offset"/>
                        <Array as="points">
                            <mxPoint x="890" y="360"/>
                            <mxPoint x="890" y="370"/>
                        </Array>
                    </mxGeometry>
                </mxCell>
                <mxCell id="hBavTMVIUUTpDoz1ay88-0" value="" style="rounded=0;whiteSpace=wrap;html=1;" vertex="1" parent="PdPnl8OcY0AH9zLTeRle-1">
                    <mxGeometry x="1670" y="520" width="20" height="40" as="geometry"/>
                </mxCell>
                <mxCell id="hBavTMVIUUTpDoz1ay88-1" value="14: consoleLog User's creation" style="endArrow=none;html=1;fontSize=16;labelBackgroundColor=none;endFill=0;startArrow=open;startFill=0;dashed=1;" edge="1" parent="PdPnl8OcY0AH9zLTeRle-1">
                    <mxGeometry x="-0.0061" y="10" width="50" height="50" relative="1" as="geometry">
                        <mxPoint x="80" y="570" as="sourcePoint"/>
                        <mxPoint x="700" y="570" as="targetPoint"/>
                        <mxPoint as="offset"/>
                    </mxGeometry>
                </mxCell>
                <mxCell id="hBavTMVIUUTpDoz1ay88-2" value="15: consoleLog User's existence" style="endArrow=none;html=1;fontSize=16;labelBackgroundColor=none;endFill=0;startArrow=open;startFill=0;dashed=1;" edge="1" parent="PdPnl8OcY0AH9zLTeRle-1">
                    <mxGeometry x="-0.0061" y="10" width="50" height="50" relative="1" as="geometry">
                        <mxPoint x="80" y="620" as="sourcePoint"/>
                        <mxPoint x="700" y="620" as="targetPoint"/>
                        <mxPoint as="offset"/>
                    </mxGeometry>
                </mxCell>
                <mxCell id="hBavTMVIUUTpDoz1ay88-3" value="[User doesn't exist]" style="text;html=1;strokeColor=none;fillColor=none;align=center;verticalAlign=middle;whiteSpace=wrap;rounded=0;fontSize=16;" vertex="1" parent="PdPnl8OcY0AH9zLTeRle-1">
                    <mxGeometry x="-50" y="530" width="100" height="20" as="geometry"/>
                </mxCell>
                <mxCell id="hBavTMVIUUTpDoz1ay88-4" value="16: fill&lt;br&gt;PREVIOUS_LOCATION" style="endArrow=block;html=1;fontSize=16;exitX=1;exitY=0.25;exitDx=0;exitDy=0;labelBackgroundColor=none;entryX=1.008;entryY=0.399;entryDx=0;entryDy=0;endFill=1;entryPerimeter=0;" edge="1" parent="PdPnl8OcY0AH9zLTeRle-1">
                    <mxGeometry x="-0.4283" y="20" width="50" height="50" relative="1" as="geometry">
                        <mxPoint x="720" y="640.0000000000005" as="sourcePoint"/>
                        <mxPoint x="720.1599999999999" y="649.9000000000005" as="targetPoint"/>
                        <mxPoint as="offset"/>
                        <Array as="points">
                            <mxPoint x="890" y="640"/>
                            <mxPoint x="890" y="650"/>
                        </Array>
                    </mxGeometry>
                </mxCell>
                <mxCell id="hBavTMVIUUTpDoz1ay88-5" value="" style="rounded=0;whiteSpace=wrap;html=1;" vertex="1" parent="PdPnl8OcY0AH9zLTeRle-1">
                    <mxGeometry x="370" y="670" width="20" height="350" as="geometry"/>
                </mxCell>
                <mxCell id="hBavTMVIUUTpDoz1ay88-7" value="17: ask navigation" style="endArrow=none;html=1;fontSize=16;labelBackgroundColor=none;endFill=0;startArrow=block;startFill=1;" edge="1" parent="PdPnl8OcY0AH9zLTeRle-1">
                    <mxGeometry x="-0.0061" y="10" width="50" height="50" relative="1" as="geometry">
                        <mxPoint x="390" y="670" as="sourcePoint"/>
                        <mxPoint x="700" y="670" as="targetPoint"/>
                        <mxPoint as="offset"/>
                    </mxGeometry>
                </mxCell>
                <mxCell id="hBavTMVIUUTpDoz1ay88-9" value="18: display loading page" style="endArrow=none;html=1;fontSize=16;exitX=1;exitY=0.25;exitDx=0;exitDy=0;labelBackgroundColor=none;endFill=0;startArrow=open;startFill=0;dashed=1;" edge="1" parent="PdPnl8OcY0AH9zLTeRle-1">
                    <mxGeometry x="-0.0061" y="10" width="50" height="50" relative="1" as="geometry">
                        <mxPoint x="79.99999999999977" y="690" as="sourcePoint"/>
                        <mxPoint x="370" y="690" as="targetPoint"/>
                        <mxPoint as="offset"/>
                    </mxGeometry>
                </mxCell>
                <mxCell id="hBavTMVIUUTpDoz1ay88-10" value="19: initialize Bills" style="endArrow=open;html=1;fontSize=16;labelBackgroundColor=none;endFill=0;labelBorderColor=none;" edge="1" parent="PdPnl8OcY0AH9zLTeRle-1">
                    <mxGeometry x="-0.0061" y="10" width="50" height="50" relative="1" as="geometry">
                        <mxPoint x="390" y="710" as="sourcePoint"/>
                        <mxPoint x="1010" y="710" as="targetPoint"/>
                        <mxPoint as="offset"/>
                    </mxGeometry>
                </mxCell>
                <mxCell id="hBavTMVIUUTpDoz1ay88-12" value="" style="rounded=0;whiteSpace=wrap;html=1;" vertex="1" parent="PdPnl8OcY0AH9zLTeRle-1">
                    <mxGeometry x="1010" y="710" width="20" height="250" as="geometry"/>
                </mxCell>
                <mxCell id="hBavTMVIUUTpDoz1ay88-14" value="" style="rounded=0;whiteSpace=wrap;html=1;" vertex="1" parent="PdPnl8OcY0AH9zLTeRle-1">
                    <mxGeometry x="1670" y="775" width="20" height="40" as="geometry"/>
                </mxCell>
                <mxCell id="hBavTMVIUUTpDoz1ay88-16" value="22: ask all bills" style="endArrow=open;html=1;fontSize=16;labelBackgroundColor=none;endFill=0;labelBorderColor=none;entryX=0;entryY=0;entryDx=0;entryDy=0;" edge="1" parent="PdPnl8OcY0AH9zLTeRle-1">
                    <mxGeometry x="-0.0061" y="10" width="50" height="50" relative="1" as="geometry">
                        <mxPoint x="1030" y="780" as="sourcePoint"/>
                        <mxPoint x="1670" y="780" as="targetPoint"/>
                        <mxPoint as="offset"/>
                    </mxGeometry>
                </mxCell>
                <mxCell id="hBavTMVIUUTpDoz1ay88-17" value="24: format date &amp;amp;&lt;br&gt;status of bills" style="endArrow=block;html=1;fontSize=16;exitX=1;exitY=0.25;exitDx=0;exitDy=0;labelBackgroundColor=none;entryX=1.008;entryY=0.399;entryDx=0;entryDy=0;endFill=1;entryPerimeter=0;" edge="1" parent="PdPnl8OcY0AH9zLTeRle-1">
                    <mxGeometry x="-0.4855" y="20" width="50" height="50" relative="1" as="geometry">
                        <mxPoint x="1030" y="870.0000000000002" as="sourcePoint"/>
                        <mxPoint x="1030.1599999999999" y="879.9000000000003" as="targetPoint"/>
                        <mxPoint as="offset"/>
                        <Array as="points">
                            <mxPoint x="1200" y="870"/>
                            <mxPoint x="1200" y="880"/>
                        </Array>
                    </mxGeometry>
                </mxCell>
                <mxCell id="hBavTMVIUUTpDoz1ay88-18" value="25: filter User's bills" style="endArrow=block;html=1;fontSize=16;exitX=1;exitY=0.25;exitDx=0;exitDy=0;labelBackgroundColor=none;entryX=1.008;entryY=0.399;entryDx=0;entryDy=0;endFill=1;entryPerimeter=0;" edge="1" parent="PdPnl8OcY0AH9zLTeRle-1">
                    <mxGeometry x="-0.4855" y="13" width="50" height="50" relative="1" as="geometry">
                        <mxPoint x="1030" y="920.0000000000002" as="sourcePoint"/>
                        <mxPoint x="1030.1599999999999" y="929.9000000000003" as="targetPoint"/>
                        <mxPoint as="offset"/>
                        <Array as="points">
                            <mxPoint x="1200" y="920"/>
                            <mxPoint x="1200" y="930"/>
                        </Array>
                    </mxGeometry>
                </mxCell>
                <mxCell id="hBavTMVIUUTpDoz1ay88-19" value="27: display bills page" style="endArrow=none;html=1;fontSize=16;exitX=1;exitY=0.25;exitDx=0;exitDy=0;labelBackgroundColor=none;endFill=0;startArrow=open;startFill=0;dashed=1;" edge="1" parent="PdPnl8OcY0AH9zLTeRle-1">
                    <mxGeometry x="-0.0061" y="10" width="50" height="50" relative="1" as="geometry">
                        <mxPoint x="79.99999999999977" y="970" as="sourcePoint"/>
                        <mxPoint x="370" y="970" as="targetPoint"/>
                        <mxPoint as="offset"/>
                    </mxGeometry>
                </mxCell>
                <mxCell id="hBavTMVIUUTpDoz1ay88-20" value="26: send User's bills" style="endArrow=none;html=1;fontSize=16;labelBackgroundColor=none;endFill=0;startArrow=open;startFill=0;dashed=1;" edge="1" parent="PdPnl8OcY0AH9zLTeRle-1">
                    <mxGeometry x="-0.0061" y="10" width="50" height="50" relative="1" as="geometry">
                        <mxPoint x="390" y="950" as="sourcePoint"/>
                        <mxPoint x="1010" y="950" as="targetPoint"/>
                        <mxPoint as="offset"/>
                    </mxGeometry>
                </mxCell>
                <mxCell id="hBavTMVIUUTpDoz1ay88-21" value="28: initialize Bills" style="endArrow=open;html=1;fontSize=16;labelBackgroundColor=none;endFill=0;labelBorderColor=none;" edge="1" parent="PdPnl8OcY0AH9zLTeRle-1">
                    <mxGeometry x="-0.0061" y="10" width="50" height="50" relative="1" as="geometry">
                        <mxPoint x="390" y="1010" as="sourcePoint"/>
                        <mxPoint x="1010" y="1010" as="targetPoint"/>
                        <mxPoint as="offset"/>
                    </mxGeometry>
                </mxCell>
                <mxCell id="hBavTMVIUUTpDoz1ay88-23" value="Firestore" style="rounded=0;whiteSpace=wrap;html=1;fontSize=16;" vertex="1" parent="PdPnl8OcY0AH9zLTeRle-1">
                    <mxGeometry x="1630" y="40" width="100" height="40" as="geometry"/>
                </mxCell>
                <mxCell id="PdPnl8OcY0AH9zLTeRle-26" value="" style="rounded=0;whiteSpace=wrap;html=1;" parent="PdPnl8OcY0AH9zLTeRle-1" vertex="1">
                    <mxGeometry x="1670" y="390" width="20" height="40" as="geometry"/>
                </mxCell>
                <mxCell id="hBavTMVIUUTpDoz1ay88-28" value="23: send all bills" style="endArrow=none;html=1;fontSize=16;labelBackgroundColor=none;endFill=0;startArrow=open;startFill=0;dashed=1;" edge="1" parent="PdPnl8OcY0AH9zLTeRle-1">
                    <mxGeometry x="-0.0061" y="10" width="50" height="50" relative="1" as="geometry">
                        <mxPoint x="1030" y="815" as="sourcePoint"/>
                        <mxPoint x="1670" y="815" as="targetPoint"/>
                        <mxPoint as="offset"/>
                    </mxGeometry>
                </mxCell>
                <mxCell id="hBavTMVIUUTpDoz1ay88-30" value="20: initialize Logout" style="endArrow=open;html=1;fontSize=16;labelBackgroundColor=none;endFill=0;labelBorderColor=none;" edge="1" parent="PdPnl8OcY0AH9zLTeRle-1">
                    <mxGeometry x="-0.0061" y="10" width="50" height="50" relative="1" as="geometry">
                        <mxPoint x="1030" y="730" as="sourcePoint"/>
                        <mxPoint x="1320" y="730" as="targetPoint"/>
                        <mxPoint as="offset"/>
                    </mxGeometry>
                </mxCell>
                <mxCell id="hBavTMVIUUTpDoz1ay88-22" value="" style="rounded=0;whiteSpace=wrap;html=1;" vertex="1" parent="PdPnl8OcY0AH9zLTeRle-1">
                    <mxGeometry x="1010" y="1010" width="20" height="40" as="geometry"/>
                </mxCell>
                <mxCell id="hBavTMVIUUTpDoz1ay88-34" value="" style="endArrow=none;dashed=1;html=1;dashPattern=1 3;strokeWidth=2;fontSize=16;entryX=0.5;entryY=1;entryDx=0;entryDy=0;" edge="1" parent="PdPnl8OcY0AH9zLTeRle-1" target="hBavTMVIUUTpDoz1ay88-22">
                    <mxGeometry width="50" height="50" relative="1" as="geometry">
                        <mxPoint x="1020" y="1090" as="sourcePoint"/>
                        <mxPoint x="1020" y="55.99999999999977" as="targetPoint"/>
                    </mxGeometry>
                </mxCell>
                <mxCell id="hBavTMVIUUTpDoz1ay88-35" value="" style="rounded=0;whiteSpace=wrap;html=1;" vertex="1" parent="PdPnl8OcY0AH9zLTeRle-1">
                    <mxGeometry x="1320" y="1030" width="20" height="60" as="geometry"/>
                </mxCell>
                <mxCell id="hBavTMVIUUTpDoz1ay88-36" value="29: initialize Logout" style="endArrow=open;html=1;fontSize=16;labelBackgroundColor=none;endFill=0;labelBorderColor=none;" edge="1" parent="PdPnl8OcY0AH9zLTeRle-1">
                    <mxGeometry x="-0.0061" y="10" width="50" height="50" relative="1" as="geometry">
                        <mxPoint x="1030" y="1030" as="sourcePoint"/>
                        <mxPoint x="1320" y="1030" as="targetPoint"/>
                        <mxPoint as="offset"/>
                    </mxGeometry>
                </mxCell>
                <mxCell id="hBavTMVIUUTpDoz1ay88-37" value="21: ask User's bills" style="endArrow=open;html=1;fontSize=16;labelBackgroundColor=none;endFill=0;labelBorderColor=none;" edge="1" parent="PdPnl8OcY0AH9zLTeRle-1">
                    <mxGeometry x="-0.0061" y="10" width="50" height="50" relative="1" as="geometry">
                        <mxPoint x="390" y="760" as="sourcePoint"/>
                        <mxPoint x="1010" y="760" as="targetPoint"/>
                        <mxPoint as="offset"/>
                    </mxGeometry>
                </mxCell>
            </root>
        </mxGraphModel>
    </diagram>
</mxfile>